<?xml version="1.0" encoding="utf-8"?>
<!-- Generator: Adobe Illustrator 25.3.1, SVG Export Plug-In . SVG Version: 6.00 Build 0)  -->
<svg version="1.1" id="Layer_1" xmlns="http://www.w3.org/2000/svg" xmlns:xlink="http://www.w3.org/1999/xlink" x="0px" y="0px"
	 viewBox="0 0 383.96 265.97" style="enable-background:new 0 0 383.96 265.97;" xml:space="preserve">
<style type="text/css">
	.st0{fill:none;stroke:#EF4565;stroke-width:3.5006;stroke-miterlimit:10;}
	.st1{fill:none;stroke:#EF4565;stroke-width:3.6323;stroke-miterlimit:10;}
	.st2{fill:#3BA8FF;}
	.st3{fill:#F04264;}
	.st4{fill:none;stroke:#F04264;stroke-width:40;stroke-miterlimit:100;}
</style>
<g>
	
		<ellipse transform="matrix(0.9977 -0.0685 0.0685 0.9977 -13.7728 9.0698)" class="st0" cx="125.42" cy="205.45" rx="95.72" ry="29.93"/>
	
		<ellipse transform="matrix(0.9977 -0.0685 0.0685 0.9977 -13.7517 9.2083)" class="st1" cx="127.45" cy="205.21" rx="59.17" ry="17.58"/>
	
		<ellipse transform="matrix(0.9977 -0.0685 0.0685 0.9977 -13.7611 9.2144)" class="st1" cx="127.54" cy="205.35" rx="26.41" ry="7.35"/>
	<g>
		<g>
			<g>
				<path class="st2" d="M129.41,54.98h35.73l-56.69,150.13H57.47l5.73-15.18h35.73l47.17-124.92h-35.73L123.6,30h50.97l-5.64,14.94
					H133.2L129.41,54.98z"/>
			</g>
		</g>
		<g>
			<path class="st3" d="M201.11,82.64l-11.54,31.5h-24.39l-33.31,90.9h-10.4l44.85-122.39H201.11z M186.88,93.09H172.9l-3.83,10.44
				h13.98L186.88,93.09z"/>
			<path class="st2" d="M219.65,82.64l-41.02,111.95h13.98h10.4l-3.83,10.44H164.4l44.85-122.39H219.65z"/>
			<path class="st2" d="M286.95,82.64L242.1,205.04h-10.4l3.83-10.44h-13.98l-3.83,10.44h-10.4l44.85-122.39h17.39H286.95z
				 M272.72,93.09h-13.98l-34.62,94.49h13.98L272.72,93.09z"/>
			<path class="st2" d="M329.86,82.64l-44.85,122.39h-10.4l41.02-111.95h-13.98l-41.02,111.95h-10.4l44.85-122.39H329.86z"/>
		</g>
	</g>
</g>
</svg>
