<svg width="36" height="36" viewBox="0 0 36 36" fill="none" xmlns="http://www.w3.org/2000/svg">
<path d="M20.745 28.4999C20.5209 28.5007 20.2995 28.4512 20.097 28.3552C19.8946 28.2591 19.7162 28.119 19.575 27.9449L12.33 18.9449C12.1094 18.6765 11.9888 18.3399 11.9888 17.9924C11.9888 17.645 12.1094 17.3083 12.33 17.0399L19.83 8.03993C20.0846 7.7336 20.4505 7.54096 20.8471 7.50439C21.2438 7.46782 21.6387 7.59032 21.945 7.84493C22.2513 8.09953 22.444 8.4654 22.4805 8.86204C22.5171 9.25868 22.3946 9.6536 22.14 9.95992L15.435 17.9999L21.915 26.0399C22.0984 26.2601 22.2149 26.5282 22.2508 26.8125C22.2866 27.0969 22.2402 27.3855 22.1171 27.6443C21.994 27.9031 21.7994 28.1212 21.5562 28.2728C21.3131 28.4245 21.0316 28.5033 20.745 28.4999Z" fill="black"/>
</svg>
