<svg width="36" height="36" viewBox="0 0 36 36" fill="none" xmlns="http://www.w3.org/2000/svg">
<path d="M36 25.3125V1.6875C36 0.752344 35.1402 0 34.0714 0H7.71429C3.45536 0 0 3.02344 0 6.75V29.25C0 32.9766 3.45536 36 7.71429 36H34.0714C35.1402 36 36 35.2477 36 34.3125V33.1875C36 32.6602 35.7188 32.182 35.2848 31.8727C34.9473 30.7898 34.9473 27.7031 35.2848 26.6203C35.7188 26.318 36 25.8398 36 25.3125ZM10.2857 9.42188C10.2857 9.18984 10.5027 9 10.7679 9H27.8036C28.0687 9 28.2857 9.18984 28.2857 9.42188V10.8281C28.2857 11.0602 28.0687 11.25 27.8036 11.25H10.7679C10.5027 11.25 10.2857 11.0602 10.2857 10.8281V9.42188ZM10.2857 13.9219C10.2857 13.6898 10.5027 13.5 10.7679 13.5H27.8036C28.0687 13.5 28.2857 13.6898 28.2857 13.9219V15.3281C28.2857 15.5602 28.0687 15.75 27.8036 15.75H10.7679C10.5027 15.75 10.2857 15.5602 10.2857 15.3281V13.9219ZM30.6482 31.5H7.71429C6.29196 31.5 5.14286 30.4945 5.14286 29.25C5.14286 28.0125 6.3 27 7.71429 27H30.6482C30.4955 28.2023 30.4955 30.2977 30.6482 31.5Z" fill="black"/>
</svg>
