<svg width="36" height="36" viewBox="0 0 36 36" fill="none" xmlns="http://www.w3.org/2000/svg">
<path d="M35.0357 33.75H33.4286V1.6875C33.4286 0.755508 32.5651 0 31.5 0H4.5C3.43487 0 2.57143 0.755508 2.57143 1.6875V33.75H0.964286C0.431759 33.75 0 34.1278 0 34.5938V36H36V34.5938C36 34.1278 35.5682 33.75 35.0357 33.75ZM10.2857 5.34375C10.2857 4.87779 10.7175 4.5 11.25 4.5H14.4643C14.9968 4.5 15.4286 4.87779 15.4286 5.34375V8.15625C15.4286 8.62221 14.9968 9 14.4643 9H11.25C10.7175 9 10.2857 8.62221 10.2857 8.15625V5.34375ZM10.2857 12.0938C10.2857 11.6278 10.7175 11.25 11.25 11.25H14.4643C14.9968 11.25 15.4286 11.6278 15.4286 12.0938V14.9062C15.4286 15.3722 14.9968 15.75 14.4643 15.75H11.25C10.7175 15.75 10.2857 15.3722 10.2857 14.9062V12.0938ZM14.4643 22.5H11.25C10.7175 22.5 10.2857 22.1222 10.2857 21.6562V18.8438C10.2857 18.3778 10.7175 18 11.25 18H14.4643C14.9968 18 15.4286 18.3778 15.4286 18.8438V21.6562C15.4286 22.1222 14.9968 22.5 14.4643 22.5ZM20.5714 33.75H15.4286V27.8438C15.4286 27.3778 15.8603 27 16.3929 27H19.6071C20.1397 27 20.5714 27.3778 20.5714 27.8438V33.75ZM25.7143 21.6562C25.7143 22.1222 25.2825 22.5 24.75 22.5H21.5357C21.0032 22.5 20.5714 22.1222 20.5714 21.6562V18.8438C20.5714 18.3778 21.0032 18 21.5357 18H24.75C25.2825 18 25.7143 18.3778 25.7143 18.8438V21.6562ZM25.7143 14.9062C25.7143 15.3722 25.2825 15.75 24.75 15.75H21.5357C21.0032 15.75 20.5714 15.3722 20.5714 14.9062V12.0938C20.5714 11.6278 21.0032 11.25 21.5357 11.25H24.75C25.2825 11.25 25.7143 11.6278 25.7143 12.0938V14.9062ZM25.7143 8.15625C25.7143 8.62221 25.2825 9 24.75 9H21.5357C21.0032 9 20.5714 8.62221 20.5714 8.15625V5.34375C20.5714 4.87779 21.0032 4.5 21.5357 4.5H24.75C25.2825 4.5 25.7143 4.87779 25.7143 5.34375V8.15625Z" fill="black"/>
</svg>
