<svg width="36" height="36" viewBox="0 0 36 36" fill="none" xmlns="http://www.w3.org/2000/svg">
<path d="M32.8571 5.89286H26.1071V3.32143C26.1071 3.14464 25.9625 3 25.7857 3H23.5357C23.3589 3 23.2143 3.14464 23.2143 3.32143V5.89286H12.9286V3.32143C12.9286 3.14464 12.7839 3 12.6071 3H10.3571C10.1804 3 10.0357 3.14464 10.0357 3.32143V5.89286H3.28571C2.57455 5.89286 2 6.46741 2 7.17857V33.8571C2 34.5683 2.57455 35.1429 3.28571 35.1429H32.8571C33.5683 35.1429 34.1429 34.5683 34.1429 33.8571V7.17857C34.1429 6.46741 33.5683 5.89286 32.8571 5.89286ZM31.25 32.25H4.89286V16.9821H31.25V32.25ZM4.89286 14.25V8.78571H10.0357V10.7143C10.0357 10.8911 10.1804 11.0357 10.3571 11.0357H12.6071C12.7839 11.0357 12.9286 10.8911 12.9286 10.7143V8.78571H23.2143V10.7143C23.2143 10.8911 23.3589 11.0357 23.5357 11.0357H25.7857C25.9625 11.0357 26.1071 10.8911 26.1071 10.7143V8.78571H31.25V14.25H4.89286Z" fill="black" fill-opacity="0.85"/>
</svg>
