<svg width="36" height="36" viewBox="0 0 36 36" fill="none" xmlns="http://www.w3.org/2000/svg">
<path d="M6 16.5H15C15.3978 16.5 15.7794 16.342 16.0607 16.0607C16.342 15.7794 16.5 15.3978 16.5 15V6C16.5 5.60218 16.342 5.22064 16.0607 4.93934C15.7794 4.65804 15.3978 4.5 15 4.5H6C5.60218 4.5 5.22064 4.65804 4.93934 4.93934C4.65804 5.22064 4.5 5.60218 4.5 6V15C4.5 15.3978 4.65804 15.7794 4.93934 16.0607C5.22064 16.342 5.60218 16.5 6 16.5ZM21 16.5H30C30.3978 16.5 30.7794 16.342 31.0607 16.0607C31.342 15.7794 31.5 15.3978 31.5 15V6C31.5 5.60218 31.342 5.22064 31.0607 4.93934C30.7794 4.65804 30.3978 4.5 30 4.5H21C20.6022 4.5 20.2206 4.65804 19.9393 4.93934C19.658 5.22064 19.5 5.60218 19.5 6V15C19.5 15.3978 19.658 15.7794 19.9393 16.0607C20.2206 16.342 20.6022 16.5 21 16.5ZM6 31.5H15C15.3978 31.5 15.7794 31.342 16.0607 31.0607C16.342 30.7794 16.5 30.3978 16.5 30V21C16.5 20.6022 16.342 20.2206 16.0607 19.9393C15.7794 19.658 15.3978 19.5 15 19.5H6C5.60218 19.5 5.22064 19.658 4.93934 19.9393C4.65804 20.2206 4.5 20.6022 4.5 21V30C4.5 30.3978 4.65804 30.7794 4.93934 31.0607C5.22064 31.342 5.60218 31.5 6 31.5ZM25.5 31.5C28.809 31.5 31.5 28.809 31.5 25.5C31.5 22.191 28.809 19.5 25.5 19.5C22.191 19.5 19.5 22.191 19.5 25.5C19.5 28.809 22.191 31.5 25.5 31.5Z" fill="black"/>
</svg>
