<svg width="21" height="20" viewBox="0 0 21 20" fill="none" xmlns="http://www.w3.org/2000/svg">
<g clip-path="url(#clip0_5242_45607)">
<path d="M10.5 18.75C8.17936 18.75 5.95376 17.8281 4.31282 16.1872C2.67187 14.5462 1.75 12.3206 1.75 10C1.75 7.67936 2.67187 5.45376 4.31282 3.81282C5.95376 2.17187 8.17936 1.25 10.5 1.25C12.8206 1.25 15.0462 2.17187 16.6872 3.81282C18.3281 5.45376 19.25 7.67936 19.25 10C19.25 12.3206 18.3281 14.5462 16.6872 16.1872C15.0462 17.8281 12.8206 18.75 10.5 18.75ZM10.5 20C13.1522 20 15.6957 18.9464 17.5711 17.0711C19.4464 15.1957 20.5 12.6522 20.5 10C20.5 7.34784 19.4464 4.8043 17.5711 2.92893C15.6957 1.05357 13.1522 0 10.5 0C7.84784 0 5.3043 1.05357 3.42893 2.92893C1.55357 4.8043 0.5 7.34784 0.5 10C0.5 12.6522 1.55357 15.1957 3.42893 17.0711C5.3043 18.9464 7.84784 20 10.5 20Z" fill="#3DA9FC"/>
<path d="M14.2124 6.21261C14.2035 6.22124 14.1952 6.23042 14.1874 6.24011L9.84619 11.7714L7.22993 9.15386C7.05222 8.98826 6.81716 8.8981 6.57428 8.90239C6.33141 8.90667 6.09967 9.00506 5.92791 9.17683C5.75614 9.3486 5.65775 9.58033 5.65347 9.8232C5.64918 10.0661 5.73933 10.3011 5.90493 10.4789L9.21243 13.7876C9.30154 13.8765 9.40764 13.9466 9.52442 13.9937C9.64119 14.0407 9.76624 14.0638 9.89212 14.0614C10.018 14.0591 10.1421 14.0314 10.2571 13.9801C10.372 13.9288 10.4754 13.8548 10.5612 13.7626L15.5512 7.52511C15.7211 7.34677 15.814 7.10873 15.8098 6.86244C15.8056 6.61616 15.7046 6.38142 15.5288 6.20897C15.3529 6.03653 15.1162 5.94024 14.8698 5.94092C14.6235 5.9416 14.3874 6.0392 14.2124 6.21261Z" fill="#3DA9FC"/>
</g>
<defs>
<clipPath id="clip0_5242_45607">
<rect width="20" height="20" fill="white" transform="translate(0.5)"/>
</clipPath>
</defs>
</svg>
