<svg width="21" height="20" viewBox="0 0 21 20" fill="none" xmlns="http://www.w3.org/2000/svg">
<g clip-path="url(#clip0_5242_45684)">
<path d="M14.3702 6.47008C14.3702 6.37186 14.2899 6.2915 14.1917 6.2915L12.7184 6.2982L10.4997 8.94329L8.28317 6.30043L6.80772 6.29374C6.70951 6.29374 6.62915 6.37186 6.62915 6.47231C6.62915 6.51472 6.64478 6.5549 6.67156 6.58838L9.57558 10.0482L6.67156 13.5058C6.64459 13.5385 6.62962 13.5795 6.62915 13.6219C6.62915 13.7201 6.70951 13.8004 6.80772 13.8004L8.28317 13.7937L10.4997 11.1486L12.7162 13.7915L14.1894 13.7982C14.2876 13.7982 14.368 13.7201 14.368 13.6196C14.368 13.5772 14.3524 13.537 14.3256 13.5036L11.426 10.046L14.33 6.58615C14.3568 6.5549 14.3702 6.51249 14.3702 6.47008Z" fill="#8D8D8D"/>
<path d="M10.5 0C4.97768 0 0.5 4.47768 0.5 10C0.5 15.5223 4.97768 20 10.5 20C16.0223 20 20.5 15.5223 20.5 10C20.5 4.47768 16.0223 0 10.5 0ZM10.5 18.3036C5.91518 18.3036 2.19643 14.5848 2.19643 10C2.19643 5.41518 5.91518 1.69643 10.5 1.69643C15.0848 1.69643 18.8036 5.41518 18.8036 10C18.8036 14.5848 15.0848 18.3036 10.5 18.3036Z" fill="#8D8D8D"/>
</g>
<defs>
<clipPath id="clip0_5242_45684">
<rect width="20" height="20" fill="white" transform="translate(0.5)"/>
</clipPath>
</defs>
</svg>
