<svg width="36" height="36" viewBox="0 0 36 36" fill="none" xmlns="http://www.w3.org/2000/svg">
<g clip-path="url(#clip0_2830_69511)">
<path d="M9.35551 27.0563C9.49576 27.1031 9.62542 27.177 9.73707 27.2739C9.84872 27.3708 9.94018 27.4888 10.0062 27.6211C10.0722 27.7534 10.1116 27.8973 10.1219 28.0448C10.1322 28.1923 10.1134 28.3404 10.0665 28.4806L8.94151 31.8556C8.83909 32.1279 8.63512 32.35 8.37244 32.4752C8.10976 32.6003 7.8088 32.6189 7.53275 32.5268C7.25671 32.4348 7.02705 32.2394 6.89201 31.9817C6.75696 31.7239 6.72704 31.4239 6.80851 31.1446L7.93351 27.7696C8.02752 27.4864 8.23014 27.2522 8.49681 27.1185C8.76348 26.9847 9.07236 26.9624 9.35551 27.0563ZM16.1055 27.0563C16.2458 27.1031 16.3754 27.177 16.4871 27.2739C16.5987 27.3708 16.6902 27.4888 16.7562 27.6211C16.8222 27.7534 16.8616 27.8973 16.8719 28.0448C16.8822 28.1923 16.8634 28.3404 16.8165 28.4806L14.5665 35.2306C14.4641 35.5029 14.2601 35.725 13.9974 35.8502C13.7348 35.9753 13.4338 35.9939 13.1578 35.9018C12.8817 35.8098 12.6521 35.6144 12.517 35.3567C12.382 35.0989 12.352 34.7989 12.4335 34.5196L14.6835 27.7696C14.7775 27.4864 14.9801 27.2522 15.2468 27.1185C15.5135 26.9847 15.8224 26.9624 16.1055 27.0563V27.0563ZM22.8555 27.0563C22.9958 27.1031 23.1254 27.177 23.2371 27.2739C23.3487 27.3708 23.4402 27.4888 23.5062 27.6211C23.5722 27.7534 23.6116 27.8973 23.6219 28.0448C23.6322 28.1923 23.6134 28.3404 23.5665 28.4806L22.4415 31.8556C22.3391 32.1279 22.1351 32.35 21.8724 32.4752C21.6098 32.6003 21.3088 32.6189 21.0328 32.5268C20.7567 32.4348 20.5271 32.2394 20.392 31.9817C20.257 31.7239 20.227 31.4239 20.3085 31.1446L21.4335 27.7696C21.5275 27.4864 21.7301 27.2522 21.9968 27.1185C22.2635 26.9847 22.5724 26.9624 22.8555 27.0563ZM29.6055 27.0563C29.7458 27.1031 29.8754 27.177 29.9871 27.2739C30.0987 27.3708 30.1902 27.4888 30.2562 27.6211C30.3222 27.7534 30.3616 27.8973 30.3719 28.0448C30.3822 28.1923 30.3634 28.3404 30.3165 28.4806L28.0665 35.2306C28.0241 35.3758 27.9529 35.5111 27.857 35.6282C27.7612 35.7453 27.6427 35.8418 27.5086 35.9121C27.3746 35.9823 27.2277 36.0248 27.0769 36.0369C26.9261 36.0491 26.7743 36.0307 26.6308 35.9828C26.4872 35.935 26.3548 35.8587 26.2414 35.7584C26.128 35.6582 26.036 35.5361 25.9709 35.3995C25.9058 35.2629 25.869 35.1145 25.8625 34.9633C25.8561 34.8122 25.8802 34.6612 25.9335 34.5196L28.1835 27.7696C28.2775 27.4864 28.4801 27.2522 28.7468 27.1185C29.0135 26.9847 29.3224 26.9624 29.6055 27.0563ZM30.1613 11.3108C29.694 8.95543 28.4855 6.81129 26.7125 5.1919C24.9394 3.5725 22.6948 2.56279 20.3068 2.31039C17.9188 2.05799 15.5127 2.57615 13.4403 3.78909C11.3679 5.00204 9.73784 6.84616 8.78851 9.05182C7.72389 8.92918 6.64545 9.02511 5.6192 9.33376C4.59295 9.64241 3.6405 10.1573 2.82015 10.8468C1.99981 11.5364 1.32883 12.3861 0.848307 13.344C0.367784 14.3019 0.0878237 15.3478 0.0255681 16.4176C-0.0366876 17.4874 0.120071 18.5587 0.486246 19.5659C0.852422 20.5731 1.42031 21.4949 2.15514 22.2749C2.88997 23.055 3.77627 23.6768 4.75979 24.1024C5.74332 24.528 6.80335 24.7484 7.87501 24.7501H29.25C30.9625 24.752 32.6117 24.103 33.8636 22.9345C35.1155 21.766 35.8764 20.1653 35.9923 18.4567C36.1081 16.7481 35.5702 15.0594 34.4875 13.7326C33.4049 12.4058 31.8583 11.5401 30.1613 11.3108V11.3108ZM19.125 4.50007C21.3389 4.49961 23.4753 5.31518 25.1257 6.79082C26.7761 8.26647 27.8247 10.2987 28.071 12.4988C28.1016 12.7753 28.2335 13.0306 28.4413 13.2155C28.649 13.4004 28.9179 13.5018 29.196 13.5001H29.25C30.4435 13.5001 31.5881 13.9742 32.432 14.8181C33.2759 15.662 33.75 16.8066 33.75 18.0001C33.75 19.1935 33.2759 20.3381 32.432 21.182C31.5881 22.026 30.4435 22.5001 29.25 22.5001H7.87501C7.07868 22.4997 6.2915 22.3302 5.56556 22.0029C4.83962 21.6755 4.19145 21.1978 3.66394 20.6012C3.13643 20.0046 2.7416 19.3029 2.50557 18.5423C2.26954 17.7818 2.19768 16.9798 2.29476 16.1894C2.39183 15.399 2.65562 14.6382 3.06868 13.9574C3.48174 13.2765 4.03466 12.6912 4.69085 12.24C5.34704 11.7888 6.09155 11.4821 6.87513 11.3402C7.65871 11.1982 8.4635 11.2243 9.23626 11.4166C9.51195 11.4853 9.80345 11.4472 10.0522 11.3099C10.301 11.1726 10.4885 10.9462 10.5773 10.6763C11.1719 8.87896 12.3179 7.31475 13.8524 6.20597C15.3869 5.0972 17.2318 4.50029 19.125 4.50007V4.50007Z" fill="black"/>
</g>
<defs>
<clipPath id="clip0_2830_69511">
<rect width="36" height="36" fill="white"/>
</clipPath>
</defs>
</svg>
