<svg width="36" height="36" viewBox="0 0 36 36" fill="none" xmlns="http://www.w3.org/2000/svg">
<path d="M16.8795 11.274C17.4819 10.2318 18.3003 9.33047 19.2798 8.63067C20.2594 7.93088 21.3773 7.44878 22.5586 7.21677C23.7398 6.98477 24.957 7.00822 26.1285 7.28555C27.2999 7.56288 28.3985 8.08767 29.3503 8.82468C30.3022 9.56169 31.0853 10.4938 31.6471 11.5585C32.2089 12.6232 32.5363 13.7958 32.6074 14.9975C32.6786 16.1993 32.4917 17.4023 32.0595 18.5258C31.6272 19.6494 30.9595 20.6674 30.1012 21.5115" stroke="black" stroke-width="0.75" stroke-linecap="round" stroke-linejoin="round"/>
<path d="M10.7895 28.9444C8.82126 28.9444 6.93364 28.1625 5.54188 26.7708C4.15013 25.379 3.36825 23.4914 3.36825 21.5232C3.36825 19.5549 4.15013 17.6673 5.54188 16.2755C6.93364 14.8838 8.82126 14.1019 10.7895 14.1019M10.863 14.0502C11.8739 13.0393 13.1184 12.2933 14.4864 11.8783C15.8545 11.4633 17.3037 11.392 18.7059 11.6709C20.108 11.9498 21.4197 12.5701 22.5248 13.477C23.6299 14.3839 24.4944 15.5493 25.0415 16.8701C25.5886 18.1908 25.8016 19.6261 25.6615 21.0488C25.5215 22.4715 25.0327 23.8377 24.2386 25.0265C23.4444 26.2152 22.3693 27.1897 21.1086 27.8637C19.8478 28.5376 18.4403 28.8903 17.0107 28.8904L10.863 14.0502Z" stroke="black" stroke-width="0.75" stroke-linecap="round" stroke-linejoin="round"/>
<path d="M25.98 28.8151L10.7895 28.9441M25.98 19.6104C26.5844 19.6103 27.1829 19.7292 27.7413 19.9604C28.2998 20.1917 28.8072 20.5306 29.2346 20.958C29.662 21.3853 30.0011 21.8927 30.2324 22.4511C30.4637 23.0095 30.5827 23.6079 30.5827 24.2124V24.2124C30.5828 24.8168 30.4639 25.4153 30.2327 25.9737C30.0014 26.5321 29.6625 27.0395 29.2351 27.4669C28.8078 27.8944 28.3004 28.2334 27.742 28.4647C27.1836 28.696 26.5852 28.8151 25.9807 28.8151V28.8151L25.98 19.6104Z" stroke="black" stroke-width="0.75" stroke-linecap="round" stroke-linejoin="round"/>
</svg>
