<svg width="36" height="36" viewBox="0 0 36 36" fill="none" xmlns="http://www.w3.org/2000/svg">
<path d="M11.8929 4.82157H11.5714C11.7482 4.82157 11.8929 4.67693 11.8929 4.50014V4.82157H24.1071V4.50014C24.1071 4.67693 24.2518 4.82157 24.4286 4.82157H24.1071V7.71443H27V4.50014C27 3.08184 25.8469 1.92871 24.4286 1.92871H11.5714C10.1531 1.92871 9 3.08184 9 4.50014V7.71443H11.8929V4.82157ZM32.1429 7.71443H3.85714C3.14598 7.71443 2.57143 8.28898 2.57143 9.00014V10.2859C2.57143 10.4626 2.71607 10.6073 2.89285 10.6073H5.31964L6.31205 31.6207C6.37634 32.9908 7.50937 34.0716 8.87946 34.0716H27.1205C28.4946 34.0716 29.6237 32.9948 29.6879 31.6207L30.6804 10.6073H33.1071C33.2839 10.6073 33.4286 10.4626 33.4286 10.2859V9.00014C33.4286 8.28898 32.854 7.71443 32.1429 7.71443ZM26.8112 31.1787H9.18884L8.21652 10.6073H27.7835L26.8112 31.1787Z" fill="black"/>
</svg>
