<svg width="36" height="36" viewBox="0 0 36 36" fill="none" xmlns="http://www.w3.org/2000/svg">
<g clip-path="url(#clip0_1679_48740)">
<path d="M3.375 33.7498C3.07663 33.7498 2.79048 33.8684 2.5795 34.0793C2.36853 34.2903 2.25 34.5765 2.25 34.8748C2.25 35.1732 2.36853 35.4593 2.5795 35.6703C2.79048 35.8813 3.07663 35.9998 3.375 35.9998H32.625C32.9234 35.9998 33.2095 35.8813 33.4205 35.6703C33.6315 35.4593 33.75 35.1732 33.75 34.8748C33.75 34.5765 33.6315 34.2903 33.4205 34.0793C33.2095 33.8684 32.9234 33.7498 32.625 33.7498H29.25V5.62483C29.25 4.72972 28.8944 3.87128 28.2615 3.23834C27.6286 2.60541 26.7701 2.24983 25.875 2.24983H24.75V1.12483C24.75 0.963799 24.7154 0.80465 24.6486 0.65814C24.5817 0.51163 24.4842 0.381173 24.3626 0.275588C24.2411 0.170002 24.0982 0.0917485 23.9438 0.0461159C23.7894 0.000483296 23.6269 -0.0114646 23.4675 0.0110796L7.7175 2.26108C7.44912 2.29903 7.20346 2.4326 7.0257 2.63722C6.84794 2.84185 6.75004 3.10378 6.75 3.37483V33.7498H3.375ZM24.75 4.49983H25.875C26.1734 4.49983 26.4595 4.61836 26.6705 4.82933C26.8815 5.04031 27 5.32646 27 5.62483V33.7498H24.75V4.49983ZM19.125 22.4998C18.504 22.4998 18 21.4918 18 20.2498C18 19.0078 18.504 17.9998 19.125 17.9998C19.746 17.9998 20.25 19.0078 20.25 20.2498C20.25 21.4918 19.746 22.4998 19.125 22.4998Z" fill="black"/>
</g>
<defs>
<clipPath id="clip0_1679_48740">
<rect width="36" height="36" fill="white"/>
</clipPath>
</defs>
</svg>
