<svg width="36" height="36" viewBox="0 0 36 36" fill="none" xmlns="http://www.w3.org/2000/svg">
<path fill-rule="evenodd" clip-rule="evenodd" d="M3.6 17.9996C3.6 17.3631 3.85285 16.7526 4.30294 16.3026C4.75303 15.8525 5.36348 15.5996 6 15.5996C6.63652 15.5996 7.24697 15.8525 7.69705 16.3026C8.14714 16.7526 8.4 17.3631 8.4 17.9996C8.4 18.6361 8.14714 19.2466 7.69705 19.6967C7.24697 20.1468 6.63652 20.3996 6 20.3996C5.36348 20.3996 4.75303 20.1468 4.30294 19.6967C3.85285 19.2466 3.6 18.6361 3.6 17.9996ZM15.6 17.9996C15.6 17.3631 15.8529 16.7526 16.3029 16.3026C16.753 15.8525 17.3635 15.5996 18 15.5996C18.6365 15.5996 19.247 15.8525 19.6971 16.3026C20.1471 16.7526 20.4 17.3631 20.4 17.9996C20.4 18.6361 20.1471 19.2466 19.6971 19.6967C19.247 20.1468 18.6365 20.3996 18 20.3996C17.3635 20.3996 16.753 20.1468 16.3029 19.6967C15.8529 19.2466 15.6 18.6361 15.6 17.9996ZM27.6 17.9996C27.6 17.3631 27.8529 16.7526 28.3029 16.3026C28.753 15.8525 29.3635 15.5996 30 15.5996C30.6365 15.5996 31.247 15.8525 31.6971 16.3026C32.1471 16.7526 32.4 17.3631 32.4 17.9996C32.4 18.6361 32.1471 19.2466 31.6971 19.6967C31.247 20.1468 30.6365 20.3996 30 20.3996C29.3635 20.3996 28.753 20.1468 28.3029 19.6967C27.8529 19.2466 27.6 18.6361 27.6 17.9996Z" fill="black"/>
</svg>
