<svg width="36" height="36" viewBox="0 0 36 36" fill="none" xmlns="http://www.w3.org/2000/svg">
<path d="M18 3C26.2845 3 33 9.7155 33 18C33 19.0905 32.8845 20.1525 32.6625 21.177L29.9895 18.5025C30.0996 15.8696 29.3399 13.2737 27.8278 11.1156C26.3157 8.95739 24.1352 7.35695 21.6231 6.56133C19.1109 5.76571 16.4066 5.81915 13.9278 6.71338C11.449 7.60762 9.33347 9.29294 7.90781 11.5092C6.48214 13.7254 5.82562 16.3493 6.0396 18.9757C6.25357 21.6022 7.32615 24.0852 9.09174 26.0414C10.8573 27.9977 13.2178 29.3183 15.8086 29.7995C18.3995 30.2808 21.0767 29.8958 23.427 28.704C23.9995 29.6114 24.805 30.3485 25.7595 30.8385C23.4198 32.2561 20.7357 33.0038 18 33C9.7155 33 3 26.2845 3 18C3 9.7155 9.7155 3 18 3ZM28.5 21.258L30.621 23.379C31.0339 23.7917 31.3174 24.316 31.4367 24.8875C31.556 25.4589 31.5061 26.0528 31.2928 26.5963C31.0796 27.1398 30.7125 27.6092 30.2364 27.9471C29.7603 28.285 29.196 28.4767 28.6126 28.4986C28.0292 28.5205 27.4521 28.3717 26.952 28.0704C26.4519 27.7692 26.0506 27.3286 25.7973 26.8026C25.5439 26.2767 25.4495 25.6882 25.5257 25.1094C25.6018 24.5306 25.8452 23.9865 26.226 23.544L26.379 23.379L28.5 21.258ZM18 22.5C20.199 22.5 22.1775 23.4465 23.55 24.9555L22.1325 26.2455C20.9475 25.773 19.527 25.5 18 25.5C16.473 25.5 15.0525 25.7745 13.8675 26.244L12.45 24.954C13.1523 24.1799 14.0091 23.5616 14.965 23.1389C15.9209 22.7163 16.9548 22.4986 18 22.5ZM12.75 15C13.3467 15 13.919 15.2371 14.341 15.659C14.7629 16.081 15 16.6533 15 17.25C15 17.8467 14.7629 18.419 14.341 18.841C13.919 19.2629 13.3467 19.5 12.75 19.5C12.1533 19.5 11.581 19.2629 11.159 18.841C10.7371 18.419 10.5 17.8467 10.5 17.25C10.5 16.6533 10.7371 16.081 11.159 15.659C11.581 15.2371 12.1533 15 12.75 15ZM23.25 15C23.8467 15 24.419 15.2371 24.841 15.659C25.2629 16.081 25.5 16.6533 25.5 17.25C25.5 17.8467 25.2629 18.419 24.841 18.841C24.419 19.2629 23.8467 19.5 23.25 19.5C22.6533 19.5 22.081 19.2629 21.659 18.841C21.2371 18.419 21 17.8467 21 17.25C21 16.6533 21.2371 16.081 21.659 15.659C22.081 15.2371 22.6533 15 23.25 15V15Z" fill="black"/>
</svg>
