<svg width="36" height="36" viewBox="0 0 36 36" fill="none" xmlns="http://www.w3.org/2000/svg">
<path d="M30.1875 6.75H5.8125C4.25918 6.75 3 8.00918 3 9.5625V26.4375C3 27.9908 4.25918 29.25 5.8125 29.25H30.1875C31.7408 29.25 33 27.9908 33 26.4375V9.5625C33 8.00918 31.7408 6.75 30.1875 6.75ZM30.1875 9.5625V11.9534C28.8737 13.0233 26.7792 14.6869 22.3015 18.1931C21.3148 18.9693 19.3601 20.834 18 20.8123C16.6402 20.8342 14.6848 18.969 13.6985 18.1931C9.22148 14.6874 7.12646 13.0235 5.8125 11.9534V9.5625H30.1875ZM5.8125 26.4375V15.5624C7.15512 16.6318 9.05912 18.1324 11.9612 20.4049C13.2419 21.413 15.4847 23.6385 18 23.6249C20.5029 23.6385 22.7173 21.4453 24.0383 20.4054C26.9403 18.1329 28.8448 16.6319 30.1875 15.5624V26.4375H5.8125Z" fill="black"/>
</svg>
