<svg width="36" height="36" viewBox="0 0 36 36" fill="none" xmlns="http://www.w3.org/2000/svg">
<path d="M7.125 7.125L10.365 10.365M18 9.75C19.6317 9.75 21.2267 10.2339 22.5835 11.1404C23.9402 12.0469 24.9976 13.3354 25.622 14.8429C26.2464 16.3504 26.4098 18.0092 26.0915 19.6095C25.7732 21.2098 24.9874 22.6798 23.8336 23.8336C22.6798 24.9874 21.2098 25.7732 19.6095 26.0915C18.0092 26.4098 16.3504 26.2464 14.8429 25.622C13.3354 24.9976 12.0469 23.9402 11.1404 22.5835C10.2339 21.2267 9.75 19.6317 9.75 18C9.75 15.812 10.6192 13.7135 12.1664 12.1664C13.7135 10.6192 15.812 9.75 18 9.75V9.75ZM18 2.625V7.2075V2.625ZM28.875 7.125L25.635 10.365L28.875 7.125ZM33.375 18H28.7925H33.375ZM28.875 28.875L25.635 25.635L28.875 28.875ZM18 33.375V28.7925V33.375ZM7.125 28.875L10.365 25.635L7.125 28.875ZM2.625 18H7.2075H2.625Z" stroke="black" stroke-width="0.75" stroke-linecap="round" stroke-linejoin="round"/>
</svg>
