<svg width="36" height="36" viewBox="0 0 36 36" fill="none" xmlns="http://www.w3.org/2000/svg">
<path d="M6 25.5V33H3V4.5H31.707C31.8385 4.49978 31.9677 4.53412 32.0817 4.59958C32.1957 4.66504 32.2905 4.75931 32.3566 4.87296C32.4227 4.9866 32.4577 5.11563 32.4583 5.24709C32.4588 5.37856 32.4247 5.50785 32.3595 5.622L27 15L32.3595 24.378C32.4247 24.4922 32.4588 24.6214 32.4583 24.7529C32.4577 24.8844 32.4227 25.0134 32.3566 25.127C32.2905 25.2407 32.1957 25.335 32.0817 25.4004C31.9677 25.4659 31.8385 25.5002 31.707 25.5H6ZM6 7.5V22.5H27.831L23.544 15L27.831 7.5H6Z" fill="black"/>
</svg>
