<svg width="36" height="36" viewBox="0 0 36 36" fill="none" xmlns="http://www.w3.org/2000/svg">
<path d="M4.49968 19.5003H5.99968V30.0003C5.99968 31.6548 7.34518 33.0003 8.99968 33.0003H26.9997C28.6542 33.0003 29.9997 31.6548 29.9997 30.0003V19.5003H31.4997C31.7963 19.5002 32.0863 19.4122 32.3329 19.2474C32.5795 19.0826 32.7717 18.8483 32.8852 18.5743C32.9987 18.3002 33.0284 17.9987 32.9706 17.7078C32.9127 17.4168 32.7699 17.1496 32.5602 16.9398L19.0602 3.4398C18.921 3.30038 18.7557 3.18978 18.5737 3.11431C18.3917 3.03884 18.1967 3 17.9997 3C17.8027 3 17.6076 3.03884 17.4256 3.11431C17.2437 3.18978 17.0784 3.30038 16.9392 3.4398L3.43918 16.9398C3.22947 17.1496 3.08666 17.4168 3.02881 17.7078C2.97095 17.9987 3.00066 18.3002 3.11416 18.5743C3.22767 18.8483 3.41988 19.0826 3.66649 19.2474C3.91311 19.4122 4.20305 19.5002 4.49968 19.5003ZM14.9997 30.0003V22.5003H20.9997V30.0003H14.9997ZM17.9997 6.6213L26.9997 15.6213V22.5003L27.0012 30.0003H23.9997V22.5003C23.9997 20.8458 22.6542 19.5003 20.9997 19.5003H14.9997C13.3452 19.5003 11.9997 20.8458 11.9997 22.5003V30.0003H8.99968V15.6213L17.9997 6.6213Z" fill="black"/>
</svg>
