<svg width="36" height="36" viewBox="0 0 36 36" fill="none" xmlns="http://www.w3.org/2000/svg">
<path d="M3 9C3 7.4087 3.63214 5.88258 4.75736 4.75736C5.88258 3.63214 7.4087 3 9 3H27C28.5913 3 30.1174 3.63214 31.2426 4.75736C32.3679 5.88258 33 7.4087 33 9V27C33 28.5913 32.3679 30.1174 31.2426 31.2426C30.1174 32.3679 28.5913 33 27 33H9C7.4087 33 5.88258 32.3679 4.75736 31.2426C3.63214 30.1174 3 28.5913 3 27V9Z" stroke="black" stroke-width="3" stroke-linecap="round" stroke-linejoin="round"/>
<path d="M12.75 16.5C14.8211 16.5 16.5 14.8211 16.5 12.75C16.5 10.6789 14.8211 9 12.75 9C10.6789 9 9 10.6789 9 12.75C9 14.8211 10.6789 16.5 12.75 16.5Z" stroke="black" stroke-width="3" stroke-linecap="round" stroke-linejoin="round"/>
<path d="M21.789 18.9319L9 33.0004H27.1995C28.7379 33.0004 30.2133 32.3893 31.3011 31.3015C32.3889 30.2137 33 28.7383 33 27.1999V27.0004C33 26.3014 32.7375 26.0329 32.265 25.5154L26.22 18.9229C25.9383 18.6156 25.5956 18.3704 25.2138 18.2029C24.832 18.0354 24.4194 17.9494 24.0025 17.9502C23.5856 17.951 23.1734 18.0388 22.7923 18.2078C22.4112 18.3769 22.0695 18.6235 21.789 18.9319V18.9319Z" stroke="black" stroke-width="3" stroke-linecap="round" stroke-linejoin="round"/>
</svg>
