<svg width="36" height="36" viewBox="0 0 36 36" fill="none" xmlns="http://www.w3.org/2000/svg">
<path d="M31.5 22.5H29.25V24.75H31.5V31.5H4.5V24.75H15.75V22.5H4.5C3.90345 22.5006 3.3315 22.7378 2.90967 23.1597C2.48784 23.5815 2.2506 24.1534 2.25 24.75V31.5C2.2506 32.0966 2.48784 32.6685 2.90967 33.0903C3.3315 33.5122 3.90345 33.7494 4.5 33.75H31.5C32.0966 33.7494 32.6685 33.5122 33.0903 33.0903C33.5122 32.6685 33.7494 32.0966 33.75 31.5V24.75C33.7494 24.1534 33.5122 23.5815 33.0903 23.1597C32.6685 22.7378 32.0966 22.5006 31.5 22.5V22.5Z" fill="black"/>
<path d="M7.875 29.25C8.49632 29.25 9 28.7463 9 28.125C9 27.5037 8.49632 27 7.875 27C7.25368 27 6.75 27.5037 6.75 28.125C6.75 28.7463 7.25368 29.25 7.875 29.25Z" fill="black"/>
<path d="M33.75 9H24.75V15.75H18V24.75H27V18H33.75V9ZM24.75 22.5H20.25V18H24.75V22.5ZM31.5 15.75H27V11.25H31.5V15.75ZM20.25 11.25H11.25V2.25H20.25V11.25ZM13.5 9H18V4.5H13.5V9Z" fill="black"/>
</svg>
