<svg width="36" height="36" viewBox="0 0 36 36" fill="none" xmlns="http://www.w3.org/2000/svg">
<path d="M3.9375 18.5625V31.3594C3.9375 31.9817 4.44023 32.4844 5.0625 32.4844H7.34766V17.4375H5.0625C4.44023 17.4375 3.9375 17.9403 3.9375 18.5625ZM31.1449 18.7629C31.7355 17.9825 32.0625 17.0262 32.0625 16.0313C32.0625 14.4528 31.1801 12.9551 29.7598 12.1289C29.3941 11.9145 28.9778 11.8016 28.5539 11.802H20.1199L20.3309 7.48129C20.3836 6.43715 20.0145 5.44574 19.2937 4.68988C18.9421 4.31696 18.5175 4.02029 18.0464 3.8183C17.5753 3.61631 17.0677 3.5133 16.5551 3.51566C14.727 3.51566 13.1098 4.74613 12.6246 6.50746L9.6082 17.434L9.59766 32.4809H26.1949C26.5219 32.4809 26.8348 32.4176 27.1266 32.2911C28.8 31.5774 29.8793 29.9426 29.8793 28.1286C29.8793 27.6856 29.816 27.2496 29.6895 26.8278C30.2801 26.0473 30.607 25.0911 30.607 24.0961C30.607 23.6532 30.5438 23.2172 30.4172 22.7954C31.0078 22.0149 31.3348 21.0586 31.3348 20.0637C31.3348 19.6207 31.2715 19.1848 31.1449 18.7629ZM28.8422 17.543L28.0723 18.211L28.5645 19.1075C28.7254 19.4016 28.8089 19.7319 28.807 20.0672C28.807 20.6473 28.5574 21.1993 28.118 21.5789L27.348 22.2469L27.8367 23.1399C27.9977 23.434 28.0812 23.7643 28.0793 24.0997C28.0793 24.6797 27.8297 25.2317 27.3902 25.6114L26.6203 26.2793L27.109 27.1723C27.27 27.4665 27.3535 27.7967 27.3516 28.1321C27.3516 28.9196 26.8875 29.6297 26.1703 29.9532H12.1289V17.8172C12.7828 15.4547 13.7602 11.911 15.0645 7.18246C15.1556 6.85814 15.3495 6.57214 15.617 6.36738C15.8845 6.16263 16.2112 6.05018 16.548 6.04691C16.8117 6.0434 17.0754 6.12426 17.2898 6.28246C17.6379 6.54262 17.8242 6.93637 17.8031 7.35473L17.4656 14.3297H28.5188C29.1445 14.7129 29.5312 15.3598 29.5312 16.0313C29.5312 16.6114 29.2816 17.1633 28.8422 17.543Z" fill="black"/>
</svg>
