<svg width="36" height="36" viewBox="0 0 36 36" fill="none" xmlns="http://www.w3.org/2000/svg">
<path d="M28.3125 16.125H26.9062V11.9062C26.9062 6.99609 22.9102 3 18 3C13.0898 3 9.09375 6.99609 9.09375 11.9062V16.125H7.6875C6.13477 16.125 4.875 17.3848 4.875 18.9375V30.1875C4.875 31.7402 6.13477 33 7.6875 33H28.3125C29.8652 33 31.125 31.7402 31.125 30.1875V18.9375C31.125 17.3848 29.8652 16.125 28.3125 16.125ZM22.2187 16.125H13.7812V11.9062C13.7812 9.58008 15.6738 7.6875 18 7.6875C20.3262 7.6875 22.2187 9.58008 22.2187 11.9062V16.125Z" fill="black"/>
</svg>
