<svg width="36" height="36" viewBox="0 0 36 36" fill="none" xmlns="http://www.w3.org/2000/svg">
<path d="M31 4C30.8664 4 30.7293 4.02461 30.5922 4.08086L10.3281 12.223H4.5625C4.25312 12.223 4 12.4832 4 12.8066V23.3184C4 23.6418 4.25312 23.902 4.5625 23.902H8.13789C8.00781 24.3098 7.9375 24.7422 7.9375 25.1816C7.9375 27.4984 9.82891 29.3828 12.1562 29.3828C14.1039 29.3828 15.7457 28.0609 16.2309 26.275L30.5957 32.0477C30.7328 32.1004 30.8699 32.1285 31.0035 32.1285C31.5977 32.1285 32.1285 31.6293 32.1285 30.9613V5.16719C32.125 4.49922 31.5977 4 31 4ZM12.1562 26.8621C11.2246 26.8621 10.4688 26.1098 10.4688 25.1816C10.4688 24.7879 10.6059 24.4117 10.8555 24.1129L13.8402 25.3117C13.7699 26.1766 13.0422 26.8621 12.1562 26.8621ZM29.5938 28.9152L11.2703 21.5535L10.8168 21.3707H6.53125V14.7543H10.8168L11.2703 14.5715L29.5938 7.20977V28.9152Z" fill="black"/>
</svg>
