<svg width="36" height="36" viewBox="0 0 36 36" fill="none" xmlns="http://www.w3.org/2000/svg">
<path fill-rule="evenodd" clip-rule="evenodd" d="M6.75 2.25H31.5L33.75 4.5V16.425C33.0419 16.0787 32.2818 15.8507 31.5 15.75V4.5H20.25V28.98L17.73 31.5H6.75L4.5 29.25V4.5L6.75 2.25ZM6.75 29.25H18V4.5H6.75V29.25ZM30.1027 18.0045C29.1591 18.0394 28.239 18.3085 27.4253 18.7875H27.3578C26.7067 19.1804 26.1416 19.7008 25.6966 20.3175C25.2515 20.9341 24.9355 21.6342 24.7677 22.3759C24.5998 23.1177 24.5834 23.8856 24.7196 24.6338C24.8557 25.382 25.1416 26.095 25.56 26.73L20.25 32.0175L21.8475 33.615L27.135 28.305C27.8663 28.8 28.71 29.1105 29.5875 29.205C30.4536 29.3102 31.3323 29.21 32.1525 28.9125C33.0046 28.6258 33.776 28.1399 34.4025 27.495C35.01 26.8593 35.4574 26.088 35.7075 25.245C35.9506 24.4047 36.0044 23.521 35.865 22.6575C35.7087 21.7898 35.3529 20.9703 34.8258 20.2636C34.2987 19.5569 33.6146 18.9822 32.8275 18.585C31.9813 18.1688 31.0451 17.9693 30.1027 18.0045V18.0045ZM30.6428 26.9865C29.8671 27.0633 29.0888 26.8694 28.44 26.4375C27.8809 26.0601 27.4432 25.5286 27.18 24.9075C26.9303 24.2944 26.8676 23.6211 27 22.9725C27.127 22.3155 27.4478 21.7116 27.9209 21.2384C28.3941 20.7653 28.998 20.4445 29.655 20.3175C30.3036 20.1851 30.9769 20.2478 31.59 20.4975C32.211 20.7607 32.742 21.1973 33.12 21.7575C33.4428 22.2422 33.6346 22.8022 33.6769 23.383C33.7192 23.9638 33.6105 24.5456 33.3614 25.072C33.1122 25.5983 32.7311 26.0513 32.2552 26.3867C31.7792 26.7222 31.2245 26.9288 30.645 26.9865H30.6428Z" fill="black"/>
</svg>
