<svg width="36" height="36" viewBox="0 0 36 36" fill="none" xmlns="http://www.w3.org/2000/svg">
<path d="M7.515 6.7365C8.13375 5.976 9.045 5.625 9.9315 5.625H26.0685C26.9528 5.625 27.864 5.976 28.485 6.7365C29.7855 8.3295 32.625 12.438 32.625 18C32.625 23.562 29.7855 27.6682 28.485 29.2635C27.864 30.024 26.955 30.375 26.0685 30.375H9.9315C9.045 30.375 8.13375 30.024 7.515 29.2635C6.2145 27.6682 3.375 23.562 3.375 18C3.375 12.438 6.2145 8.33175 7.515 6.7365ZM9.9315 7.875C9.80531 7.86903 9.67939 7.89139 9.56297 7.94045C9.44656 7.98951 9.3426 8.06401 9.25875 8.1585C8.09775 9.58275 5.625 13.1917 5.625 18C5.625 22.8083 8.09775 26.415 9.25875 27.8415C9.39375 28.0057 9.6255 28.125 9.93375 28.125H26.0662C26.3745 28.125 26.6063 28.0057 26.7413 27.8415C27.9023 26.4172 30.375 22.8083 30.375 18C30.375 13.1917 27.9023 9.585 26.7413 8.1585C26.6572 8.06371 26.5528 7.98902 26.436 7.93995C26.3192 7.89088 26.1928 7.86869 26.0662 7.875H9.93375H9.9315Z" fill="#094067"/>
<path d="M13.5 12.375C13.7984 12.375 14.0845 12.4935 14.2955 12.7045C14.5065 12.9155 14.625 13.2016 14.625 13.5V16.875C14.625 17.1734 14.5065 17.4595 14.2955 17.6705C14.0845 17.8815 13.7984 18 13.5 18C13.2016 18 12.9155 17.8815 12.7045 17.6705C12.4935 17.4595 12.375 17.1734 12.375 16.875V13.5C12.375 13.2016 12.4935 12.9155 12.7045 12.7045C12.9155 12.4935 13.2016 12.375 13.5 12.375ZM22.5 12.375C22.7984 12.375 23.0845 12.4935 23.2955 12.7045C23.5065 12.9155 23.625 13.2016 23.625 13.5V16.875C23.625 17.1734 23.5065 17.4595 23.2955 17.6705C23.0845 17.8815 22.7984 18 22.5 18C22.2016 18 21.9155 17.8815 21.7045 17.6705C21.4935 17.4595 21.375 17.1734 21.375 16.875V13.5C21.375 13.2016 21.4935 12.9155 21.7045 12.7045C21.9155 12.4935 22.2016 12.375 22.5 12.375ZM15.75 22.5V24.75H20.25V22.5C20.25 21.9033 20.0129 21.331 19.591 20.909C19.169 20.4871 18.5967 20.25 18 20.25C17.4033 20.25 16.831 20.4871 16.409 20.909C15.9871 21.331 15.75 21.9033 15.75 22.5Z" fill="#094067"/>
</svg>
