<svg width="36" height="36" viewBox="0 0 36 36" fill="none" xmlns="http://www.w3.org/2000/svg">
<path d="M26.625 4C27.4802 3.9999 28.3035 4.30284 28.9286 4.8476C29.5537 5.39236 29.934 6.13831 29.9925 6.93469L30 7.15032V28.8497C30.0001 29.6479 29.6756 30.4165 29.0919 31C28.5083 31.5834 27.7092 31.9384 26.856 31.993L26.625 32H9.375C8.51981 32.0001 7.69647 31.6972 7.07137 31.1524C6.44627 30.6076 6.06603 29.8617 6.0075 29.0653L6 28.8497V7.15032C5.99989 6.35206 6.32444 5.58353 6.90805 5.00005C7.49166 4.41656 8.29082 4.06164 9.144 4.007L9.375 4H26.625ZM26.625 6.10021H9.375C9.10314 6.10022 8.84049 6.19212 8.6356 6.35891C8.43072 6.5257 8.29747 6.7561 8.2605 7.0075L8.25 7.15032V28.8497C8.25 29.3817 8.673 29.8214 9.222 29.89L9.375 29.8998H26.625C26.8969 29.8998 27.1595 29.8079 27.3644 29.6411C27.5693 29.4743 27.7025 29.2439 27.7395 28.9925L27.75 28.8497V7.15032C27.75 6.89656 27.6515 6.65139 27.4729 6.46014C27.2942 6.2689 27.0473 6.14452 26.778 6.11001L26.625 6.10021ZM10.5 23.2505C10.5 22.972 10.6185 22.7049 10.8295 22.508C11.0405 22.3111 11.3266 22.2004 11.625 22.2004H24.375C24.6734 22.2004 24.9595 22.3111 25.1705 22.508C25.3815 22.7049 25.5 22.972 25.5 23.2505C25.5 23.529 25.3815 23.7961 25.1705 23.9931C24.9595 24.19 24.6734 24.3006 24.375 24.3006H11.625C11.3266 24.3006 11.0405 24.19 10.8295 23.9931C10.6185 23.7961 10.5 23.529 10.5 23.2505ZM10.5 12.0494C10.5 11.7709 10.6185 11.5038 10.8295 11.3069C11.0405 11.1099 11.3266 10.9993 11.625 10.9993H24.375C24.6734 10.9993 24.9595 11.1099 25.1705 11.3069C25.3815 11.5038 25.5 11.7709 25.5 12.0494C25.5 12.3279 25.3815 12.595 25.1705 12.7919C24.9595 12.9889 24.6734 13.0995 24.375 13.0995H11.625C11.3266 13.0995 11.0405 12.9889 10.8295 12.7919C10.6185 12.595 10.5 12.3279 10.5 12.0494ZM10.5 17.65C10.5 17.3715 10.6185 17.1044 10.8295 16.9074C11.0405 16.7105 11.3266 16.5999 11.625 16.5999H24.375C24.6734 16.5999 24.9595 16.7105 25.1705 16.9074C25.3815 17.1044 25.5 17.3715 25.5 17.65C25.5 17.9285 25.3815 18.1956 25.1705 18.3925C24.9595 18.5894 24.6734 18.7001 24.375 18.7001H11.625C11.3266 18.7001 11.0405 18.5894 10.8295 18.3925C10.6185 18.1956 10.5 17.9285 10.5 17.65Z" fill="black"/>
</svg>
