<svg width="36" height="36" viewBox="0 0 36 36" fill="none" xmlns="http://www.w3.org/2000/svg">
<path d="M8.62734 1.63965L8.74687 3.17738L7.57265 4.17934L9.07734 4.54285L9.66797 5.96668L10.4766 4.65324L12.0094 4.5302L11.0109 3.35527L11.3695 1.85621L9.94218 2.44332L8.62734 1.63965V1.63965ZM32.625 2.24996C32.3266 2.24996 32.0405 2.36849 31.8295 2.57947C31.6185 2.79044 31.5 3.07659 31.5 3.37496C31.5 3.67333 31.6185 3.95948 31.8295 4.17046C32.0405 4.38143 32.3266 4.49996 32.625 4.49996C32.9234 4.49996 33.2095 4.38143 33.4205 4.17046C33.6315 3.95948 33.75 3.67333 33.75 3.37496C33.75 3.07659 33.6315 2.79044 33.4205 2.57947C33.2095 2.36849 32.9234 2.24996 32.625 2.24996V2.24996ZM16.8609 2.98824C16.5626 2.98824 16.2764 3.10677 16.0654 3.31775C15.8545 3.52873 15.7359 3.81487 15.7359 4.11324C15.7359 4.41161 15.8545 4.69776 16.0654 4.90874C16.2764 5.11972 16.5626 5.23824 16.8609 5.23824C17.1593 5.23824 17.4454 5.11972 17.6564 4.90874C17.8674 4.69776 17.9859 4.41161 17.9859 4.11324C17.9859 3.81487 17.8674 3.52873 17.6564 3.31775C17.4454 3.10677 17.1593 2.98824 16.8609 2.98824V2.98824ZM29.7914 3.46918C29.1445 3.59152 28.5469 3.97402 27.9703 4.47324C27.4359 4.93238 26.9367 5.50402 26.5148 6.12207C25.193 6.33371 23.8711 6.8723 22.9852 7.60777C21.8531 8.5359 20.8477 10.125 20.2992 11.7632C19.7789 11.9812 19.2867 12.2414 18.8859 12.5226C17.7961 13.289 17.2336 14.7586 16.8187 16.0382C16.4039 17.325 16.2 18.45 16.2 18.45L17.4516 18.675C17.4516 18.675 17.6414 17.6203 18.0211 16.432C18.4078 15.2437 19.0617 13.95 19.6172 13.5632C19.7086 13.5 19.8281 13.4296 19.9336 13.3664C19.8914 13.7671 19.8914 14.1679 19.9547 14.5476C20.0812 15.3492 20.5172 16.1156 21.2906 16.5304C21.8391 16.8257 22.4578 16.7554 22.9781 16.5445C23.4984 16.3265 23.9625 15.9679 24.3633 15.5461C24.7641 15.1242 25.0945 14.625 25.2914 14.0976C25.4883 13.5703 25.5586 12.9726 25.3055 12.4171H25.2984C25.0242 11.8265 24.4969 11.4468 23.9344 11.2851C23.3719 11.1234 22.7672 11.1304 22.1625 11.2218C22.057 11.2359 21.9586 11.2711 21.8531 11.2921C22.3734 10.1812 23.1187 9.13355 23.7867 8.57809C24.2227 8.21949 24.9539 7.87496 25.7344 7.62184C25.6359 7.88902 25.5586 8.15621 25.5234 8.43043C25.4109 9.16871 25.5727 9.97027 26.1633 10.5187C26.5922 10.9125 27.1687 10.9757 27.675 10.8914C28.1742 10.807 28.6594 10.582 29.0953 10.2937C29.5312 9.9984 29.918 9.63277 30.1922 9.20387C30.4664 8.77496 30.6492 8.22652 30.4734 7.67809V7.67105C30.2414 6.96301 29.6648 6.47645 29.025 6.24582C28.7508 6.14738 28.4625 6.09184 28.1672 6.05879C28.3711 5.82957 28.582 5.61512 28.793 5.4316C29.2711 5.02098 29.7562 4.76363 30.0305 4.7123L29.7914 3.46918V3.46918ZM12.2906 5.93363L11.2219 6.60582L13.6477 10.4906L9.68203 10.6945L11.5453 14.7586L12.6984 14.2242L11.6086 11.8617L15.8695 11.6437L12.2906 5.93363ZM27.5062 7.29137C27.9352 7.28434 28.3148 7.33355 28.5961 7.43902C28.9758 7.57262 29.1656 7.74137 29.2641 8.05777C29.2922 8.13512 29.2781 8.2898 29.1305 8.52184C28.9758 8.7609 28.7016 9.02809 28.3922 9.23902C28.0758 9.44996 27.7242 9.59762 27.4641 9.63981C27.1969 9.68902 27.0773 9.6398 27.0211 9.59059C26.775 9.36559 26.7047 9.08434 26.775 8.61324C26.8312 8.23355 27.007 7.77652 27.2672 7.30543C27.3516 7.30543 27.4289 7.29137 27.5062 7.29137V7.29137ZM6.67898 8.6484C6.38061 8.6484 6.09446 8.76693 5.88349 8.9779C5.67251 9.18888 5.55398 9.47503 5.55398 9.7734C5.55398 10.0718 5.67251 10.3579 5.88349 10.5689C6.09446 10.7799 6.38061 10.8984 6.67898 10.8984C6.82678 10.8985 6.97314 10.8695 7.10972 10.813C7.24629 10.7565 7.37039 10.6736 7.47493 10.5691C7.57947 10.4647 7.6624 10.3406 7.71898 10.2041C7.77556 10.0675 7.80468 9.92119 7.80468 9.7734C7.80468 9.6256 7.77556 9.47925 7.71898 9.34272C7.6624 9.20618 7.57947 9.08213 7.47493 8.97765C7.37039 8.87318 7.24629 8.79033 7.10972 8.73383C6.97314 8.67734 6.82678 8.64831 6.67898 8.6484V8.6484ZM31.718 11.264L30.7055 12.4312L29.1727 12.3046L29.9742 13.6265L29.3766 15.0468L30.8812 14.6953L32.0484 15.7007L32.182 14.1609L33.4969 13.3593L32.0766 12.7617L31.718 11.264V11.264ZM23.0344 12.4242C23.2383 12.4312 23.4281 12.4593 23.5758 12.5015C23.8781 12.5859 24.0398 12.7125 24.1523 12.9515C24.2156 13.0851 24.2227 13.3312 24.1031 13.6546C23.9836 13.9851 23.7375 14.3648 23.4422 14.6812C23.1469 14.9976 22.7883 15.2507 22.493 15.3703C22.1977 15.4898 22.0148 15.4828 21.8953 15.4195H21.8883C21.4805 15.1945 21.2836 14.8711 21.2062 14.3507C21.1359 13.9078 21.1852 13.3453 21.3328 12.7406C21.6773 12.6211 22.0219 12.5226 22.3523 12.4734C22.5984 12.4382 22.8234 12.4242 23.0344 12.4242ZM8.80312 16.0734C8.29687 16.0593 7.98047 16.1789 7.78359 16.3757C7.58672 16.5726 7.46718 16.889 7.48125 17.3953C7.49531 17.9086 7.66406 18.5836 7.9875 19.3359C8.63437 20.8476 9.90703 22.6687 11.6156 24.3843C13.3242 26.0929 15.1523 27.3586 16.6641 28.0054C17.4094 28.3289 18.0844 28.4976 18.5977 28.5117C19.1109 28.5328 19.4203 28.4062 19.6172 28.2093C19.8141 28.0125 19.9406 27.7031 19.9195 27.1898C19.9055 26.6765 19.7367 26.0015 19.4133 25.2492C18.7664 23.7445 17.5008 21.9164 15.7922 20.2078C14.0836 18.4921 12.2555 17.2265 10.7437 16.5796C9.9914 16.2562 9.3164 16.0875 8.80312 16.0734ZM25.1156 18.2742L22.7953 22.0711L20.7492 20.1093L19.8773 21.0234L23.0484 24.0679L25.425 20.1867L28.1461 22.4578L34.425 19.7718L33.9328 18.6046L28.357 20.9953L25.1156 18.2742V18.2742ZM6.56929 19.1671L5.32898 23.2382C8.24062 26.6906 11.6367 28.6312 15.3211 29.8968L16.8398 29.4328C16.6219 29.3554 16.3898 29.264 16.1578 29.1656C14.4422 28.4343 12.5227 27.0843 10.7227 25.2773C8.91562 23.4703 7.56562 21.5507 6.83156 19.8351C6.73242 19.6101 6.64523 19.3851 6.56929 19.1671V19.1671ZM4.89445 24.6656L3.90937 27.9C5.9407 29.7984 8.05781 30.6562 10.2797 31.4296L13.3312 30.5015C10.2937 29.264 7.425 27.457 4.89445 24.6656V24.6656ZM25.875 24.75C25.5766 24.75 25.2905 24.8685 25.0795 25.0795C24.8685 25.2904 24.75 25.5766 24.75 25.875C24.75 26.1733 24.8685 26.4595 25.0795 26.6705C25.2905 26.8814 25.5766 27 25.875 27C26.1734 27 26.4595 26.8814 26.6705 26.6705C26.8815 26.4595 27 26.1733 27 25.875C27 25.5766 26.8815 25.2904 26.6705 25.0795C26.4595 24.8685 26.1734 24.75 25.875 24.75ZM3.50226 29.2429L2.07562 33.9257L8.28281 32.0343C6.68179 31.3945 5.0639 30.5789 3.50226 29.2429V29.2429Z" fill="black"/>
</svg>
