<svg width="36" height="36" viewBox="0 0 36 36" fill="none" xmlns="http://www.w3.org/2000/svg">
<path d="M34.8795 4.36491C35.0897 4.57578 35.2078 4.8614 35.2078 5.15916C35.2078 5.45692 35.0897 5.74253 34.8795 5.95341L32.5328 8.30241L28.0328 3.80241L30.3795 1.45341C30.5905 1.2425 30.8766 1.12402 31.1749 1.12402C31.4732 1.12402 31.7593 1.2425 31.9703 1.45341L34.8795 4.36266V4.36491ZM30.942 9.89091L26.442 5.39091L11.1128 20.7224C10.9889 20.8462 10.8957 20.9972 10.8405 21.1634L9.02925 26.5949C8.9964 26.6939 8.99174 26.8001 9.01578 26.9016C9.03982 27.0032 9.09162 27.096 9.16539 27.1698C9.23916 27.2435 9.33199 27.2953 9.43351 27.3194C9.53503 27.3434 9.64123 27.3388 9.74025 27.3059L15.1718 25.4947C15.3377 25.4401 15.4887 25.3477 15.6128 25.2247L30.942 9.89316V9.89091Z" fill="black"/>
<path fill-rule="evenodd" clip-rule="evenodd" d="M2.25 30.375C2.25 31.2701 2.60558 32.1286 3.23851 32.7615C3.87145 33.3944 4.72989 33.75 5.625 33.75H30.375C31.2701 33.75 32.1286 33.3944 32.7615 32.7615C33.3944 32.1286 33.75 31.2701 33.75 30.375V16.875C33.75 16.5766 33.6315 16.2905 33.4205 16.0795C33.2095 15.8685 32.9234 15.75 32.625 15.75C32.3266 15.75 32.0405 15.8685 31.8295 16.0795C31.6185 16.2905 31.5 16.5766 31.5 16.875V30.375C31.5 30.6734 31.3815 30.9595 31.1705 31.1705C30.9595 31.3815 30.6734 31.5 30.375 31.5H5.625C5.32663 31.5 5.04048 31.3815 4.82951 31.1705C4.61853 30.9595 4.5 30.6734 4.5 30.375V5.625C4.5 5.32663 4.61853 5.04048 4.82951 4.82951C5.04048 4.61853 5.32663 4.5 5.625 4.5H20.25C20.5484 4.5 20.8345 4.38147 21.0455 4.1705C21.2565 3.95952 21.375 3.67337 21.375 3.375C21.375 3.07663 21.2565 2.79048 21.0455 2.5795C20.8345 2.36853 20.5484 2.25 20.25 2.25H5.625C4.72989 2.25 3.87145 2.60558 3.23851 3.23851C2.60558 3.87145 2.25 4.72989 2.25 5.625V30.375Z" fill="black"/>
</svg>
