<svg width="36" height="36" viewBox="0 0 36 36" fill="none" xmlns="http://www.w3.org/2000/svg">
<path d="M15.75 31.5C15.75 31.5 13.5 31.5 13.5 29.25C13.5 27 15.75 20.25 24.75 20.25C33.75 20.25 36 27 36 29.25C36 31.5 33.75 31.5 33.75 31.5H15.75ZM24.75 18C26.5402 18 28.2571 17.2888 29.523 16.023C30.7888 14.7571 31.5 13.0402 31.5 11.25C31.5 9.45979 30.7888 7.7429 29.523 6.47703C28.2571 5.21116 26.5402 4.5 24.75 4.5C22.9598 4.5 21.2429 5.21116 19.977 6.47703C18.7112 7.7429 18 9.45979 18 11.25C18 13.0402 18.7112 14.7571 19.977 16.023C21.2429 17.2888 22.9598 18 24.75 18V18Z" fill="black"/>
<path fill-rule="evenodd" clip-rule="evenodd" d="M11.736 31.5C11.4024 30.7976 11.2361 30.0274 11.25 29.25C11.25 26.2012 12.78 23.0625 15.606 20.88C14.1955 20.4454 12.7259 20.2328 11.25 20.25C2.25 20.25 0 27 0 29.25C0 31.5 2.25 31.5 2.25 31.5H11.736Z" fill="black"/>
<path d="M10.125 18C11.6168 18 13.0476 17.4074 14.1025 16.3525C15.1574 15.2976 15.75 13.8668 15.75 12.375C15.75 10.8832 15.1574 9.45242 14.1025 8.39752C13.0476 7.34263 11.6168 6.75 10.125 6.75C8.63316 6.75 7.20242 7.34263 6.14752 8.39752C5.09263 9.45242 4.5 10.8832 4.5 12.375C4.5 13.8668 5.09263 15.2976 6.14752 16.3525C7.20242 17.4074 8.63316 18 10.125 18V18Z" fill="black"/>
</svg>
