<svg width="36" height="36" viewBox="0 0 36 36" fill="none" xmlns="http://www.w3.org/2000/svg">
<path d="M12.325 29.9386H22.675L24.175 23.9386H10.825L12.325 29.9386V29.9386ZM12.325 32.9386C11.625 32.9386 11.0125 32.7261 10.4875 32.3011C9.9625 31.8761 9.6125 31.3261 9.4375 30.6511L7.75 23.9386H27.25L25.5625 30.6511C25.3875 31.3261 25.0375 31.8761 24.5125 32.3011C23.9875 32.7261 23.375 32.9386 22.675 32.9386H12.325ZM7 20.9386H28V17.9386H7V20.9386ZM9.625 3.01364C11.85 3.28864 13.719 4.26964 15.232 5.95664C16.744 7.64464 17.5 9.63864 17.5 11.9386C17.5 9.63864 18.256 7.64464 19.768 5.95664C21.281 4.26964 23.15 3.28864 25.375 3.01364C25.675 2.96364 25.9375 3.05114 26.1625 3.27614C26.3875 3.50114 26.475 3.76364 26.425 4.06364C26.175 6.03864 25.3625 7.73214 23.9875 9.14414C22.6125 10.5571 20.95 11.4386 19 11.7886V14.9386H29.5C29.925 14.9386 30.281 15.0821 30.568 15.3691C30.856 15.6571 31 16.0136 31 16.4386V20.9386C31 21.7636 30.7065 22.4696 30.1195 23.0566C29.5315 23.6446 28.825 23.9386 28 23.9386H7C6.175 23.9386 5.4685 23.6446 4.8805 23.0566C4.2935 22.4696 4 21.7636 4 20.9386V16.4386C4 16.0136 4.144 15.6571 4.432 15.3691C4.719 15.0821 5.075 14.9386 5.5 14.9386H16V11.7886C14.05 11.4386 12.3875 10.5571 11.0125 9.14414C9.6375 7.73214 8.825 6.03864 8.575 4.06364C8.525 3.76364 8.6125 3.50114 8.8375 3.27614C9.0625 3.05114 9.325 2.96364 9.625 3.01364Z" fill="black"/>
</svg>
