<svg width="36" height="36" viewBox="0 0 36 36" fill="none" xmlns="http://www.w3.org/2000/svg">
<path d="M16.269 23.3669H9.79876C3.03526 22.7639 3.07126 12.8714 9.83926 12.3149C11.0805 7.57494 14.8208 5.50344 18.4155 5.69694C19.8483 5.76205 21.2388 6.20299 22.4473 6.97549C23.6558 7.74799 24.6398 8.82485 25.3005 10.0979C33.7403 11.5492 32.724 22.3672 25.3005 23.3669H18.4103" stroke="black" stroke-width="0.75" stroke-linecap="round" stroke-linejoin="round"/>
<path d="M14.286 6.53442C13.9398 5.83742 13.4361 5.23057 12.8148 4.76193C12.1935 4.29329 11.4716 3.97573 10.7063 3.83437C9.941 3.69302 9.1533 3.73176 8.40557 3.94753C7.65783 4.1633 6.97059 4.55017 6.39826 5.07752C5.82592 5.60487 5.38421 6.25821 5.10808 6.98582C4.83196 7.71344 4.72901 8.49534 4.80738 9.26962C4.88575 10.0439 5.14329 10.7893 5.55962 11.4468C5.97594 12.1044 6.53961 12.656 7.20601 13.0579L14.286 6.53442ZM18.8625 19.0227L15.3158 25.5364L17.6633 26.7259L16.6508 31.6452L20.5658 25.8477L18.2798 24.6252L18.8625 19.0227Z" stroke="black" stroke-width="0.75" stroke-linecap="round" stroke-linejoin="round"/>
<path d="M13.0927 25.7988C13.4034 25.7988 13.6552 25.547 13.6552 25.2363C13.6552 24.9257 13.4034 24.6738 13.0927 24.6738C12.7821 24.6738 12.5302 24.9257 12.5302 25.2363C12.5302 25.547 12.7821 25.7988 13.0927 25.7988Z" fill="black"/>
<path d="M21.3232 30.2812C21.6339 30.2812 21.8857 30.0294 21.8857 29.7188C21.8857 29.4081 21.6339 29.1562 21.3232 29.1562C21.0126 29.1562 20.7607 29.4081 20.7607 29.7188C20.7607 30.0294 21.0126 30.2812 21.3232 30.2812Z" fill="black"/>
<path d="M22.8712 26.6133C23.1819 26.6133 23.4337 26.3614 23.4337 26.0508C23.4337 25.7401 23.1819 25.4883 22.8712 25.4883C22.5606 25.4883 22.3087 25.7401 22.3087 26.0508C22.3087 26.3614 22.5606 26.6133 22.8712 26.6133Z" fill="black"/>
<path d="M8.97075 26.6943C9.28141 26.6943 9.53325 26.4425 9.53325 26.1318C9.53325 25.8212 9.28141 25.5693 8.97075 25.5693C8.66009 25.5693 8.40825 25.8212 8.40825 26.1318C8.40825 26.4425 8.66009 26.6943 8.97075 26.6943Z" fill="black"/>
<path d="M13.4235 28.8467C13.7342 28.8467 13.986 28.5948 13.986 28.2842C13.986 27.9735 13.7342 27.7217 13.4235 27.7217C13.1128 27.7217 12.861 27.9735 12.861 28.2842C12.861 28.5948 13.1128 28.8467 13.4235 28.8467Z" fill="black"/>
<path d="M28.2397 26.0898C28.5504 26.0898 28.8022 25.838 28.8022 25.5273C28.8022 25.2167 28.5504 24.9648 28.2397 24.9648C27.9291 24.9648 27.6772 25.2167 27.6772 25.5273C27.6772 25.838 27.9291 26.0898 28.2397 26.0898Z" fill="black"/>
<path d="M25.8698 31.6455C26.1804 31.6455 26.4323 31.3937 26.4323 31.083C26.4323 30.7723 26.1804 30.5205 25.8698 30.5205C25.5591 30.5205 25.3073 30.7723 25.3073 31.083C25.3073 31.3937 25.5591 31.6455 25.8698 31.6455Z" fill="black"/>
<path d="M25.5472 28.25C25.8579 28.25 26.1097 27.9982 26.1097 27.6875C26.1097 27.3768 25.8579 27.125 25.5472 27.125C25.2366 27.125 24.9847 27.3768 24.9847 27.6875C24.9847 27.9982 25.2366 28.25 25.5472 28.25Z" fill="black"/>
<path d="M10.5945 32.208C10.9052 32.208 11.157 31.9562 11.157 31.6455C11.157 31.3348 10.9052 31.083 10.5945 31.083C10.2838 31.083 10.032 31.3348 10.032 31.6455C10.032 31.9562 10.2838 32.208 10.5945 32.208Z" fill="black"/>
</svg>
