<svg width="26" height="34" viewBox="0 0 26 34" fill="none" xmlns="http://www.w3.org/2000/svg">
<path d="M13.8944 32.9477L13.8944 32.9476L15.3944 29.9476L15.3945 29.9476C15.4638 29.8088 15.5 29.6557 15.5 29.5005V29.5004V23.5H23.5C24.6046 23.5 25.5 22.6046 25.5 21.5C25.4999 18.1242 23.0694 15.5239 20.0952 14.0615L19.4164 7.49999H21.4999C22.6045 7.49999 23.4999 6.60457 23.4999 5.49999V2.5C23.4999 1.39542 22.6045 0.5 21.4999 0.5H4.49999C3.39541 0.5 2.49999 1.39542 2.49999 2.5V5.49999C2.49999 6.60457 3.39541 7.49999 4.49999 7.49999H6.58353L5.90472 14.0615C2.89931 15.5391 0.5 18.1519 0.5 21.5C0.5 22.6046 1.39542 23.5 2.5 23.5H10.5V29.5004C10.5 29.6555 10.5361 29.8087 10.6056 29.9476C10.6056 29.9477 10.6056 29.9477 10.6057 29.9478L12.1056 32.9476C12.4733 33.6832 13.5257 33.6851 13.8944 32.9477Z" fill="white" stroke="#094067"/>
</svg>