<svg width="77" height="78" viewBox="0 0 77 78" fill="none" xmlns="http://www.w3.org/2000/svg">
<g filter="url(#filter0_d_1072_29418)">
<path d="M36.2064 25.967V35.2767C39.7803 36.0832 42.9571 37.4093 46.2846 38.3252V29.0018C42.7243 28.2089 39.5201 26.8829 36.2064 25.967ZM66.7833 9.15212C62.0865 11.3257 56.308 13.513 50.7622 13.513C43.4364 13.513 37.3703 8.75567 28.1411 8.75567C24.7178 8.75567 21.6642 9.35718 18.8297 10.3961C19.2131 9.39819 19.3911 8.31821 19.3227 7.16988C19.0762 3.28743 15.8857 0.170529 11.9831 0.00648214C7.60131 -0.171236 4 3.32844 4 7.66202C4 10.2594 5.30085 12.5561 7.28636 13.9368V66.7191C7.28636 68.5372 8.75154 70 10.5727 70H12.7636C14.5848 70 16.05 68.5372 16.05 66.7191V53.814C19.9252 52.1599 24.7589 50.7928 31.715 50.7928C39.0546 50.7928 45.1069 55.5502 54.3362 55.5502C60.9363 55.5502 66.2081 53.3219 71.1103 49.9589C72.3016 49.1386 73 47.7989 73 46.3498V13.1166C73.0136 9.93134 69.6862 7.8124 66.7833 9.15212ZM26.1282 44.5043C22.5953 44.8734 19.2816 45.6253 16.05 46.7736V37.1359C19.6376 35.8645 22.5543 35.0853 26.1282 34.7572V44.5043ZM66.4409 26.1173C63.2093 27.4571 60.101 28.7831 56.3627 29.3846V39.1044C59.7586 38.6396 63.401 37.4913 66.4409 35.5501V45.1878C63.0039 47.3888 59.7997 48.5645 56.3627 48.8926V39.1044C52.6656 39.6102 49.8037 39.3095 46.2846 38.3389V47.5529C43.0119 46.5412 39.8077 45.2699 36.2064 44.641V35.2767C33.5088 34.6751 30.6196 34.347 26.1282 34.7572V25.1877C23.0609 25.6115 20.021 26.5821 16.05 28.0449V18.4071C20.5961 16.7393 22.9103 15.7003 26.1282 15.3996V25.1877C29.8253 24.6819 32.7557 25.01 36.2064 25.967V16.753C39.4517 17.7646 42.6696 19.036 46.2846 19.6648V29.0155C49.5298 29.7401 52.8025 29.9588 56.3627 29.3846V19.5555C60.0599 18.8993 63.5243 17.6962 66.4409 16.4796V26.1173Z" fill="#094067"/>
</g>
<defs>
<filter id="filter0_d_1072_29418" x="0" y="0" width="77" height="78" filterUnits="userSpaceOnUse" color-interpolation-filters="sRGB">
<feFlood flood-opacity="0" result="BackgroundImageFix"/>
<feColorMatrix in="SourceAlpha" type="matrix" values="0 0 0 0 0 0 0 0 0 0 0 0 0 0 0 0 0 0 127 0" result="hardAlpha"/>
<feOffset dy="4"/>
<feGaussianBlur stdDeviation="2"/>
<feComposite in2="hardAlpha" operator="out"/>
<feColorMatrix type="matrix" values="0 0 0 0 0 0 0 0 0 0 0 0 0 0 0 0 0 0 0.25 0"/>
<feBlend mode="normal" in2="BackgroundImageFix" result="effect1_dropShadow_1072_29418"/>
<feBlend mode="normal" in="SourceGraphic" in2="effect1_dropShadow_1072_29418" result="shape"/>
</filter>
</defs>
</svg>