<svg width="38" height="59" viewBox="0 0 38 59" fill="none" xmlns="http://www.w3.org/2000/svg">
<path d="M3.28287 22.9727L3.28334 22.9718C4.50765 20.5254 6.59136 18.6027 9.13543 17.5886C9.63448 17.3892 10.1073 17.1967 10.5601 17.0124C13.8962 15.6543 16.1475 14.7379 19.8163 14.7479C19.8164 14.7479 19.8165 14.7479 19.8166 14.7479L19.8153 15.2479C25.0456 15.259 29.6573 18.732 31.3108 23.6965L3.28287 22.9727ZM3.28287 22.9727L2.52944 24.4862C1.52929 26.4911 2.3369 28.9289 4.35064 29.932C6.3535 30.9353 8.78905 30.1209 9.80081 28.1184L9.80213 28.1158L10.5544 26.6046C10.5547 26.6041 10.5549 26.6037 10.5551 26.6032C10.896 25.9292 11.4575 25.4051 12.1492 25.1294L12.1493 25.1293L14.2534 24.2902L12.7841 30.0967L12.7841 30.0969C12.1575 32.5774 12.8329 35.2105 14.5771 37.1033L14.5779 37.1041L21.3147 44.383C22.0686 45.2017 22.602 46.1852 22.8738 47.2509C22.8739 47.251 22.8739 47.2511 22.8739 47.2512L24.932 55.4091L24.9322 55.4099C25.4842 57.582 27.7133 58.9101 29.9018 58.3655C32.0877 57.8216 33.44 55.6167 32.8865 53.4383L30.3896 43.5325L30.3893 43.5311C30.0768 42.3061 29.4636 41.1624 28.5952 40.2311C28.595 40.2308 28.5947 40.2306 28.5945 40.2303L23.6622 34.8988L25.1139 29.1609L25.1898 29.3865C25.1899 29.3867 25.19 29.3869 25.19 29.3871C25.8281 31.3047 27.2003 32.8889 29.0058 33.7942L29.0059 33.7942L31.6267 35.1077L31.8507 34.6607L31.6267 35.1077C33.6297 36.1115 36.0656 35.2971 37.0775 33.2944L37.0792 33.291C38.0666 31.2986 37.2606 28.8391 35.2466 27.8355C35.2463 27.8353 35.2459 27.8351 35.2456 27.8349L32.8108 26.6147L31.7852 23.5385M3.28287 22.9727L31.7852 23.5385M31.7852 23.5385C31.7852 23.5384 31.7852 23.5384 31.7852 23.5383L31.7852 23.5385ZM8.81142 43.7587L8.81253 43.7559L11.1409 38.0234L11.4765 37.1972L12.0063 37.9144C12.2379 38.228 12.3224 38.368 12.3828 38.4681C12.3896 38.4793 12.396 38.49 12.4023 38.5003L12.4025 38.5005C12.4406 38.5631 12.4721 38.6149 12.6789 38.8488C12.9796 39.1889 13.6026 39.8603 15.0277 41.3962C15.6304 42.0458 16.3766 42.85 17.3025 43.8491L17.5182 44.0819L17.3994 44.3761L15.8809 48.1385L15.8796 48.1417C15.4836 49.1035 14.9067 49.9726 14.1717 50.6999L7.49035 57.3118C5.88951 58.8961 3.30365 58.8961 1.70281 57.3118C0.0991824 55.7249 0.0990641 53.1461 1.70245 51.559L8.81142 43.7587ZM8.81142 43.7587C8.47714 44.5961 7.9763 45.3496 7.32974 45.979L7.3265 45.9823L1.70281 51.5586L8.81142 43.7587ZM24.3932 12.1859C27.6452 12.1859 30.2923 9.57379 30.2923 6.34297C30.2923 3.11215 27.6452 0.5 24.3932 0.5C21.1413 0.5 18.4942 3.11215 18.4942 6.34297C18.4942 9.57379 21.1413 12.1859 24.3932 12.1859Z" fill="white" stroke="#094067"/>
</svg>