<svg width="36" height="36" viewBox="0 0 36 36" fill="none" xmlns="http://www.w3.org/2000/svg">
<path d="M23.625 33.75C21.845 33.75 20.1049 33.2222 18.6249 32.2332C17.1448 31.2443 15.9913 29.8387 15.3101 28.1942C14.6289 26.5496 14.4507 24.74 14.7979 22.9942C15.1452 21.2484 16.0024 19.6447 17.261 18.386C18.5197 17.1274 20.1234 16.2702 21.8692 15.9229C23.615 15.5757 25.4246 15.7539 27.0692 16.4351C28.7137 17.1163 30.1193 18.2698 31.1082 19.7499C32.0972 21.2299 32.625 22.97 32.625 24.75C32.625 27.137 31.6768 29.4261 29.989 31.114C28.3011 32.8018 26.012 33.75 23.625 33.75ZM23.625 18C22.29 18 20.9849 18.3959 19.8749 19.1376C18.7649 19.8793 17.8997 20.9335 17.3888 22.1669C16.8779 23.4003 16.7443 24.7575 17.0047 26.0669C17.2652 27.3762 17.908 28.579 18.852 29.523C19.796 30.467 20.9988 31.1099 22.3081 31.3703C23.6175 31.6308 24.9747 31.4971 26.2081 30.9862C27.4415 30.4753 28.4957 29.6101 29.2374 28.5001C29.9791 27.3901 30.375 26.085 30.375 24.75C30.375 22.9598 29.6638 21.2429 28.398 19.977C27.1321 18.7112 25.4152 18 23.625 18Z" fill="black"/>
<path d="M25.4138 28.125L22.5 25.2112V20.25H24.75V24.2888L27 26.5388L25.4138 28.125Z" fill="black"/>
<path d="M31.5 6.75C31.5 6.15326 31.2629 5.58097 30.841 5.15901C30.419 4.73705 29.8467 4.5 29.25 4.5H24.75V2.25H22.5V4.5H13.5V2.25H11.25V4.5H6.75C6.15326 4.5 5.58097 4.73705 5.15901 5.15901C4.73705 5.58097 4.5 6.15326 4.5 6.75V29.25C4.5 29.8467 4.73705 30.419 5.15901 30.841C5.58097 31.2629 6.15326 31.5 6.75 31.5H11.25V29.25H6.75V6.75H11.25V9H13.5V6.75H22.5V9H24.75V6.75H29.25V13.5H31.5V6.75Z" fill="black"/>
</svg>
