<svg width="36" height="36" viewBox="0 0 36 36" fill="none" xmlns="http://www.w3.org/2000/svg">
<g clip-path="url(#clip0_1455_43302)">
<path d="M0 15.75V34.875C0 35.4966 0.40275 36 0.9 36H5.4V13.5H1.8C0.806062 13.5 0 14.5076 0 15.75ZM20.25 12.375H18.9V9.56251C18.9 9.25173 18.6986 9.00001 18.45 9.00001H17.55C17.3014 9.00001 17.1 9.25173 17.1 9.56251V14.0625C17.1 14.3733 17.3014 14.625 17.55 14.625H20.25C20.4986 14.625 20.7 14.3733 20.7 14.0625V12.9375C20.7 12.6267 20.4986 12.375 20.25 12.375ZM27.9984 7.87782L18.9984 0.377584C18.7027 0.131372 18.3553 0 18 0C17.6447 0 17.2973 0.131372 17.0016 0.377584L8.00156 7.87782C7.75505 8.08326 7.55291 8.36157 7.41308 8.68808C7.27326 9.01459 7.20006 9.37919 7.2 9.74954V36H14.4V25.875C14.4 25.2534 14.8027 24.75 15.3 24.75H20.7C21.1972 24.75 21.6 25.2534 21.6 25.875V36H28.8V9.75024C28.8 8.9979 28.4991 8.29477 27.9984 7.87782ZM18 18C15.5149 18 13.5 15.4814 13.5 12.375C13.5 9.2686 15.5149 6.75001 18 6.75001C20.4851 6.75001 22.5 9.2686 22.5 12.375C22.5 15.4814 20.4851 18 18 18ZM34.2 13.5H30.6V36H35.1C35.5972 36 36 35.4966 36 34.875V15.75C36 14.5076 35.1939 13.5 34.2 13.5Z" fill="black"/>
</g>
<defs>
<clipPath id="clip0_1455_43302">
<rect width="36" height="36" fill="white"/>
</clipPath>
</defs>
</svg>
