<svg width="36" height="36" viewBox="0 0 36 36" fill="none" xmlns="http://www.w3.org/2000/svg">
<path d="M32.139 16.643L6.639 4.64298C6.38225 4.52151 6.09626 4.4755 5.81437 4.51033C5.53248 4.54516 5.26629 4.65939 5.04683 4.83971C4.82737 5.02003 4.66367 5.259 4.57482 5.52878C4.48598 5.79857 4.47563 6.08805 4.545 6.36348L7.4535 18.0005L4.545 29.6375C4.47498 29.913 4.48488 30.2028 4.57352 30.4729C4.66216 30.743 4.82588 30.9823 5.04554 31.1628C5.2652 31.3433 5.53171 31.4575 5.8139 31.4921C6.09608 31.5266 6.38228 31.4801 6.639 31.358L32.139 19.358C32.3967 19.2368 32.6146 19.0449 32.7672 18.8045C32.9198 18.5641 33.0009 18.2852 33.0009 18.0005C33.0009 17.7157 32.9198 17.4369 32.7672 17.1965C32.6146 16.9561 32.3967 16.7641 32.139 16.643V16.643ZM8.2215 27.296L9.48 22.2605L18 18.0005L9.48 13.7405L8.2215 8.70498L27.9765 18.0005L8.2215 27.296Z" fill="black"/>
</svg>
