<svg width="36" height="36" viewBox="0 0 36 36" fill="none" xmlns="http://www.w3.org/2000/svg">
<g clip-path="url(#clip0_1807_50895)">
<path d="M8.03641 16.7414C8.0356 17.1953 8.21546 17.6308 8.53645 17.9523C8.85743 18.2738 9.29324 18.4549 9.748 18.4557C10.2028 18.4565 10.6392 18.277 10.9614 17.9567C11.2835 17.6364 11.4649 17.2015 11.4658 16.7476C11.4666 16.2938 11.2867 15.8582 10.9657 15.5367C10.6447 15.2152 10.2089 15.0342 9.75417 15.0333C9.29941 15.0325 8.86295 15.212 8.54081 15.5323C8.21867 15.8527 8.03723 16.2876 8.03641 16.7414V16.7414ZM20.6107 16.7641C20.6098 17.2179 20.7897 17.6535 21.1107 17.975C21.4317 18.2965 21.8675 18.4776 22.3223 18.4784C22.777 18.4792 23.2135 18.2997 23.5356 17.9794C23.8578 17.659 24.0392 17.2241 24.04 16.7703C24.0408 16.3164 23.861 15.8809 23.54 15.5594C23.219 15.2379 22.7832 15.0568 22.3284 15.056C21.8737 15.0552 21.4372 15.2347 21.1151 15.555C20.7929 15.8753 20.6115 16.3103 20.6107 16.7641V16.7641ZM16.0611 4.02884C7.22345 4.01291 0.0446675 11.1514 0.028772 19.9712C0.0128765 28.7909 7.16588 35.9552 16.0036 35.9712C24.8413 35.9871 32.0201 28.8486 32.036 20.0288C32.0519 11.2091 24.8988 4.04477 16.0611 4.02884ZM25.4104 29.3929C24.1865 30.6099 22.7631 31.5627 21.1794 32.2301C19.5456 32.9188 17.8053 33.265 16.0085 33.2618C14.2116 33.2585 12.4726 32.906 10.8378 32.2115C9.25885 31.5426 7.82531 30.5738 6.61693 29.359C5.39742 28.1376 4.44262 26.717 3.77389 25.1365C3.08739 23.506 2.74044 21.7692 2.74367 19.976C2.7469 18.1829 3.10011 16.4473 3.79606 14.8158C4.46622 13.2401 5.43698 11.8095 6.6543 10.6036C7.8782 9.38655 9.30167 8.4337 10.8854 7.76633C12.5191 7.08123 14.2594 6.735 16.0563 6.73824C17.8531 6.74147 19.5921 7.09398 21.227 7.78853C22.8059 8.45735 24.2394 9.42615 25.4478 10.641C26.6673 11.8624 27.6221 13.283 28.2908 14.8635C28.9773 16.494 29.3243 18.2308 29.3211 20.0239C29.3178 21.8171 28.9646 23.5527 28.2687 25.1842C27.5993 26.7593 26.6284 28.1889 25.4104 29.3929V29.3929ZM21.4608 20.7584L19.7426 20.7553C19.5925 20.7551 19.4637 20.8689 19.4527 21.0186C19.3138 22.7831 17.8288 24.1743 16.0248 24.171C14.2209 24.1678 12.7373 22.7712 12.6083 21.0063C12.5979 20.8565 12.4695 20.7422 12.3195 20.742L10.6012 20.7389C10.5625 20.7387 10.5241 20.7465 10.4884 20.7616C10.4528 20.7768 10.4205 20.799 10.3938 20.827C10.367 20.855 10.3462 20.8881 10.3326 20.9243C10.3191 20.9606 10.313 20.9992 10.3149 21.0378C10.4667 24.0434 12.9665 26.4471 16.0207 26.4526C19.075 26.4581 21.5834 24.0634 21.746 21.0584C21.7481 21.0198 21.7422 20.9811 21.7287 20.9449C21.7153 20.9086 21.6946 20.8754 21.6679 20.8473C21.6413 20.8193 21.6091 20.7969 21.5735 20.7816C21.5379 20.7663 21.4996 20.7585 21.4608 20.7584V20.7584Z" fill="#094067"/>
</g>
<defs>
<clipPath id="clip0_1807_50895">
<rect width="36" height="36" fill="white"/>
</clipPath>
</defs>
</svg>
