<svg width="36" height="36" viewBox="0 0 36 36" fill="none" xmlns="http://www.w3.org/2000/svg">
<path d="M32.625 7.875H27V5.90625C27 5.75156 26.8734 5.625 26.7188 5.625H24.75C24.5953 5.625 24.4688 5.75156 24.4688 5.90625V7.875H19.2656V5.90625C19.2656 5.75156 19.1391 5.625 18.9844 5.625H17.0156C16.8609 5.625 16.7344 5.75156 16.7344 5.90625V7.875H11.5312V5.90625C11.5312 5.75156 11.4047 5.625 11.25 5.625H9.28125C9.12656 5.625 9 5.75156 9 5.90625V7.875H3.375C2.75273 7.875 2.25 8.37773 2.25 9V29.25C2.25 29.8723 2.75273 30.375 3.375 30.375H32.625C33.2473 30.375 33.75 29.8723 33.75 29.25V9C33.75 8.37773 33.2473 7.875 32.625 7.875ZM31.2188 27.8438H4.78125V10.4062H9V12.375C9 12.5297 9.12656 12.6562 9.28125 12.6562H11.25C11.4047 12.6562 11.5312 12.5297 11.5312 12.375V10.4062H16.7344V12.375C16.7344 12.5297 16.8609 12.6562 17.0156 12.6562H18.9844C19.1391 12.6562 19.2656 12.5297 19.2656 12.375V10.4062H24.4688V12.375C24.4688 12.5297 24.5953 12.6562 24.75 12.6562H26.7188C26.8734 12.6562 27 12.5297 27 12.375V10.4062H31.2188V27.8438ZM14.625 17.4375H8.15625C8.00156 17.4375 7.875 17.5641 7.875 17.7188V19.4062C7.875 19.5609 8.00156 19.6875 8.15625 19.6875H14.625C14.7797 19.6875 14.9062 19.5609 14.9062 19.4062V17.7188C14.9062 17.5641 14.7797 17.4375 14.625 17.4375ZM14.625 22.2188H8.15625C8.00156 22.2188 7.875 22.3453 7.875 22.5V24.1875C7.875 24.3422 8.00156 24.4688 8.15625 24.4688H14.625C14.7797 24.4688 14.9062 24.3422 14.9062 24.1875V22.5C14.9062 22.3453 14.7797 22.2188 14.625 22.2188ZM25.4602 15.982L21.818 21.034L19.9617 18.4641C19.8562 18.3164 19.6875 18.232 19.5082 18.232H17.5781C17.3496 18.232 17.216 18.4922 17.3496 18.6785L21.3609 24.2402C21.4127 24.3121 21.4809 24.3706 21.5597 24.411C21.6386 24.4514 21.7259 24.4724 21.8145 24.4724C21.903 24.4724 21.9904 24.4514 22.0692 24.411C22.1481 24.3706 22.2162 24.3121 22.268 24.2402L28.0688 16.2C28.2023 16.0137 28.0688 15.7535 27.8402 15.7535H25.9102C25.7344 15.75 25.5656 15.8379 25.4602 15.982Z" fill="black"/>
</svg>
