<svg width="36" height="36" viewBox="0 0 36 36" fill="none" xmlns="http://www.w3.org/2000/svg">
<path d="M20.8125 2.25H34.3125C35.2445 2.25 36 3.00551 36 3.9375V15.1875C36 16.1195 35.2445 16.875 34.3125 16.875H20.8125C19.8805 16.875 19.125 16.1195 19.125 15.1875V3.9375C19.125 3.00551 19.8805 2.25 20.8125 2.25ZM15.1875 2.25H1.6875C0.755508 2.25 0 3.00551 0 3.9375V15.1875C0 16.1195 0.755508 16.875 1.6875 16.875H15.1875C16.1195 16.875 16.875 16.1195 16.875 15.1875V3.9375C16.875 3.00551 16.1195 2.25 15.1875 2.25ZM0 20.8125V32.0625C0 32.9945 0.755508 33.75 1.6875 33.75H15.1875C16.1195 33.75 16.875 32.9945 16.875 32.0625V20.8125C16.875 19.8805 16.1195 19.125 15.1875 19.125H1.6875C0.755508 19.125 0 19.8805 0 20.8125ZM20.8125 33.75H34.3125C35.2445 33.75 36 32.9945 36 32.0625V20.8125C36 19.8805 35.2445 19.125 34.3125 19.125H20.8125C19.8805 19.125 19.125 19.8805 19.125 20.8125V32.0625C19.125 32.9945 19.8805 33.75 20.8125 33.75Z" fill="black"/>
</svg>
