<svg width="36" height="36" viewBox="0 0 36 36" fill="none" xmlns="http://www.w3.org/2000/svg">
<path d="M24.75 3.375C24.75 1.51102 26.2617 0 28.125 0C29.9883 0 31.5 1.51102 31.5 3.375C31.5 5.23898 29.9883 6.75 28.125 6.75C26.2617 6.75 24.75 5.23898 24.75 3.375ZM21.4172 14.4422C20.3484 14.9203 19.5047 15.7922 19.0687 16.882L18.9633 17.1492C18.4992 18.3023 17.1914 18.8648 16.0383 18.4008C14.8851 17.9367 14.3226 16.6289 14.7867 15.4758L14.8922 15.2086C15.7641 13.0359 17.4516 11.2852 19.5961 10.3289L20.3695 9.98438C21.832 9.3375 23.3508 9 25.0101 9C28.1461 9 30.9726 10.8844 32.175 13.7742L33.1945 16.3617L34.7555 17.1141C35.8664 17.6695 36.3164 19.0195 35.7609 20.1305C35.2055 21.2414 33.8555 21.6914 32.7445 21.1359L30.8672 20.2008C30.143 19.8352 29.5734 19.2234 29.2641 18.4781L28.5891 16.8609L27.232 21.4664L30.7125 25.2703C31.0922 25.6852 31.3664 26.1844 31.5 26.7328L33.1172 33.2016C33.4195 34.4109 32.6883 35.6344 31.4859 35.9297C30.2766 36.232 29.0531 35.5008 28.6945 34.2984L27.2039 28.0969L22.2398 22.6758C21.1992 21.5437 20.7492 19.9617 21.2062 18.4781L22.3945 14.0133C22.3312 14.0414 22.2609 14.0695 22.1976 14.0977L21.4172 14.4422V14.4422ZM20.5805 24.2016L23.4422 27.3234L22.4226 29.8687C22.2539 30.2977 22.0008 30.6844 21.6773 31.0008L17.3391 35.3391C16.4601 36.218 15.0398 36.218 14.1609 35.3391C13.282 34.4602 13.282 33.0398 14.1609 32.1609L18.3305 27.9844L20.0883 23.5969C20.2359 23.8078 20.4047 24.0047 20.5805 24.2016V24.2016ZM15.6867 19.2727C16.2914 19.5891 16.4742 20.2711 16.1648 20.7492L13.0851 26.1422C13.0359 26.332 12.9586 26.5219 12.8601 26.6977L8.36014 34.4953C7.73436 35.5711 6.35905 35.9367 5.28327 35.318L1.38585 33.068C0.309855 32.4422 -0.0588639 31.0711 0.562417 29.9953L4.99921 22.1977C5.68405 21.1219 7.05936 20.7563 8.13514 21.3117L11.9601 23.5828L14.2101 19.6242C14.5266 19.1461 15.2086 18.9633 15.6867 19.2727V19.2727Z" fill="black"/>
</svg>
